<svg xmlns="http://www.w3.org/2000/svg" viewBox="0 0 1200 630" role="img" aria-label="WageShield OG image">
  <title>WageShield — Confidential Wage-Theft Claims on Fhenix CoFHE</title>
  <defs>
    <linearGradient id="og-bg" x1="0" y1="0" x2="1200" y2="630" gradientUnits="userSpaceOnUse">
      <stop offset="0" stop-color="#0F1320"/>
      <stop offset="1" stop-color="#1B2240"/>
    </linearGradient>
    <linearGradient id="og-shield" x1="32" y1="4" x2="32" y2="60" gradientUnits="userSpaceOnUse">
      <stop offset="0" stop-color="#7C8DF0"/>
      <stop offset="1" stop-color="#5168E3"/>
    </linearGradient>
    <pattern id="og-dots" x="0" y="0" width="40" height="40" patternUnits="userSpaceOnUse">
      <circle cx="20" cy="20" r="1" fill="#7C8DF0" opacity="0.18"/>
    </pattern>
  </defs>

  <rect width="1200" height="630" fill="url(#og-bg)"/>
  <rect width="1200" height="630" fill="url(#og-dots)"/>

  <!-- Top brand row -->
  <g transform="translate(80 80)">
    <g transform="scale(1.2)">
      <path d="M32 4 L56 12 V32 C56 46 45.5 56 32 60 C18.5 56 8 46 8 32 V12 Z" fill="url(#og-shield)"/>
      <circle cx="32" cy="20" r="3.5" fill="#E0E7FF"/>
      <circle cx="22" cy="38" r="3.5" fill="#E0E7FF"/>
      <circle cx="42" cy="38" r="3.5" fill="#E0E7FF"/>
      <path d="M32 23.5 L22 34.5 M32 23.5 L42 34.5 M22 38 L42 38" stroke="#E0E7FF" stroke-width="1.6" stroke-linecap="round" fill="none" opacity="0.9"/>
      <circle cx="32" cy="32" r="1.8" fill="#34D399"/>
    </g>
    <text x="92" y="56" font-family="Inter, sans-serif" font-size="40" font-weight="700" fill="#F6F7F9" letter-spacing="-1">
      Wage<tspan fill="#7C8DF0">Shield</tspan>
    </text>
  </g>

  <!-- Main headline -->
  <g font-family="Inter, sans-serif" fill="#F6F7F9">
    <text x="80" y="320" font-size="84" font-weight="700" letter-spacing="-2.5">
      Recover stolen wages.
    </text>
    <text x="80" y="410" font-size="84" font-weight="700" letter-spacing="-2.5" fill="#7C8DF0">
      Without revealing who you are.
    </text>
  </g>

  <!-- Stat row at bottom -->
  <g font-family="Inter, sans-serif" font-weight="600">
    <text x="80"  y="540" font-size="22" fill="#CBD0DB">$50B / yr stolen · less than 1% file · 75% of low-wage workers affected</text>
  </g>

  <!-- Tag chips bottom -->
  <g font-family="Inter, sans-serif" font-size="18" font-weight="500">
    <rect x="80" y="568" width="280" height="40" rx="20" fill="#5168E3" opacity="0.18"/>
    <text x="220" y="595" fill="#7C8DF0" text-anchor="middle">Fhenix CoFHE · encrypted EVM</text>

    <rect x="376" y="568" width="240" height="40" rx="20" fill="#5168E3" opacity="0.18"/>
    <text x="496" y="595" fill="#7C8DF0" text-anchor="middle">Privara settlement plugin</text>

    <rect x="632" y="568" width="240" height="40" rx="20" fill="#10B981" opacity="0.22"/>
    <text x="752" y="595" fill="#34D399" text-anchor="middle">Live on Arbitrum Sepolia</text>
  </g>

  <!-- Decorative encrypted-handle chain in the upper-right -->
  <g opacity="0.4" stroke="#7C8DF0" stroke-width="2" fill="none" stroke-linecap="round">
    <circle cx="900"  cy="120" r="6" fill="#7C8DF0"/>
    <circle cx="1020" cy="180" r="6" fill="#7C8DF0"/>
    <circle cx="960"  cy="270" r="6" fill="#7C8DF0"/>
    <circle cx="1080" cy="320" r="6" fill="#7C8DF0"/>
    <path d="M900 120 L1020 180 L960 270 L1080 320"/>
  </g>
  <g opacity="0.35" font-family="JetBrains Mono, ui-monospace, monospace" fill="#5168E3" font-size="12">
    <text x="900" y="100">0xa8f2…39b1</text>
    <text x="1000" y="160">FHE.mul()</text>
    <text x="940" y="250">euint128</text>
    <text x="1060" y="300">allow(attorney)</text>
  </g>
</svg>
